<?xml version="1.0" encoding="UTF-8"?>
<!-- Generator: Adobe Illustrator 16.0.3, SVG Export Plug-In . SVG Version: 6.00 Build 0)  -->
<!DOCTYPE svg PUBLIC "-//W3C//DTD SVG 1.1//EN" "http://www.w3.org/Graphics/SVG/1.1/DTD/svg11.dtd">
<svg version="1.1" id="Ebene_1" xmlns="http://www.w3.org/2000/svg" xmlns:xlink="http://www.w3.org/1999/xlink" x="0px"
     y="0px" width="44px" height="150px" viewBox="-4.979 -17.603 44 150" enable-background="new -4.979 -17.603 44 150"
     xml:space="preserve">
<g>
	<rect x="-4.979" y="-16.603" fill="#00B5AD" width="16.443" height="49.33"/>
    <rect x="-4.979" y="32.727" fill="#FFFFFF" width="16.443" height="49.329"/>
    <rect x="-4.979" y="82.056" fill="#1D1D1D" width="16.443" height="49.33"/>
    <path fill="#1D1D1D"
          d="M36.396-16.574c-2.328,0-1.52,3.47-3.234,3.47c-0.639,0-1.205-0.44-1.205-1.556   c0-0.584,0.125-1.079,0.34-1.591l-0.529-0.108c-0.225,0.476-0.361,1.069-0.361,1.726c0,1.448,0.775,2.095,1.791,2.095   c2.221,0,1.428-3.461,3.236-3.461c0.873,0,1.395,0.548,1.395,1.618c0,0.71-0.18,1.286-0.521,1.808l0.557,0.107   c0.314-0.512,0.521-1.141,0.521-1.915C38.384-15.819,37.628-16.574,36.396-16.574 M37.7-7.838h-2.723v-2.958h-0.506v2.958h-2.398   v-3.417l-0.559,0.026v3.975h6.744v-4.136L37.7-11.417V-7.838z M31.73-5.96c-0.17,0.351-0.324,1.007-0.324,1.574   c0,1.96,1.045,2.841,3.408,2.841c2.482,0,3.57-0.863,3.57-2.823c0-0.603-0.191-1.223-0.406-1.628l-0.512,0.1   c0.217,0.404,0.352,0.89,0.352,1.456c0,1.556-0.719,2.285-3.004,2.285c-2.139,0-2.84-0.72-2.84-2.257   c0-0.558,0.135-1.098,0.305-1.466L31.73-5.96z M38.259-0.12h-6.744v0.531l4.973-0.009l0.719-0.018l0.008,0.018l-0.611,0.396   l-5.088,3.372v0.584h6.744v-0.54h-5.09l-0.729,0.01l-0.01-0.018l0.611-0.396l5.217-3.489V-0.12z M37.7,9.615h-2.723V6.658h-0.506   v2.957h-2.398V6.2l-0.559,0.027V10.2h6.744V6.064L37.7,6.038V9.615z M38.259,11.956h-6.744v0.594h6.744V11.956z M31.73,13.904   c-0.17,0.351-0.324,1.007-0.324,1.574c0,1.96,1.045,2.84,3.408,2.84c2.482,0,3.57-0.863,3.57-2.823   c0-0.603-0.191-1.223-0.406-1.627l-0.512,0.099c0.217,0.404,0.352,0.89,0.352,1.456c0,1.556-0.719,2.284-3.004,2.284   c-2.139,0-2.84-0.719-2.84-2.256c0-0.559,0.135-1.098,0.305-1.467L31.73,13.904z M36.396,19.355c-2.328,0-1.52,3.47-3.234,3.47   c-0.639,0-1.205-0.44-1.205-1.555c0-0.585,0.125-1.08,0.34-1.592l-0.529-0.107c-0.225,0.476-0.361,1.069-0.361,1.726   c0,1.447,0.775,2.095,1.791,2.095c2.221,0,1.428-3.462,3.236-3.462c0.873,0,1.395,0.548,1.395,1.619   c0,0.709-0.18,1.285-0.521,1.807l0.557,0.108c0.314-0.513,0.521-1.143,0.521-1.915C38.384,20.11,37.628,19.355,36.396,19.355    M34.861,27.923c2.229,0,2.83,0.737,2.83,2.221v1.602h-5.6v-1.592C32.091,28.589,32.73,27.923,34.861,27.923 M34.861,27.304   c-2.393,0-3.346,0.844-3.346,2.832v2.202h6.744v-2.211C38.259,28.211,37.322,27.304,34.861,27.304 M37.7,37.201h-2.723v-2.959   h-0.506v2.959h-2.398v-3.417l-0.559,0.026v3.975h6.744v-4.136L37.7,33.622V37.201z M38.259,39.54h-6.744v0.594h6.744V39.54z    M37.683,44.71h-6.168v0.593h6.744v-3.91l-0.576-0.028V44.71z M33.519,47.19c1.143,0,1.502,0.539,1.502,1.591v1.555h-2.975v-1.555   C32.046,47.702,32.441,47.19,33.519,47.19 M33.519,46.587c-1.41,0-2.004,0.665-2.004,2.194v2.149h6.744v-0.594h-2.727v-1.555   C35.532,47.234,34.876,46.587,33.519,46.587 M33.519,52.816c1.143,0,1.502,0.54,1.502,1.591v1.556h-2.975v-1.556   C32.046,53.329,32.441,52.816,33.519,52.816 M33.519,52.214c-1.41,0-2.004,0.666-2.004,2.194v2.149h6.744v-0.594h-2.727v-1.556   C35.532,52.861,34.876,52.214,33.519,52.214 M31.956,60.646v-0.028l0.691-0.225l3.301-1.176v2.856l-3.301-1.193L31.956,60.646z    M38.259,58.387v-0.664l-6.744,2.564v0.698l6.744,2.564v-0.639l-1.781-0.639v-3.247L38.259,58.387z M32.091,66.83l-0.576,0.02   v3.973h6.744v-0.594h-3.191V67.37h-0.541v2.858h-2.436V66.83z M34.886,72.88c2.268,0,2.924,0.586,2.924,2.069   c0,1.492-0.656,2.086-2.924,2.086c-2.273,0-2.912-0.594-2.912-2.075C31.974,73.466,32.613,72.88,34.886,72.88 M34.886,72.271   c-2.5,0-3.48,0.729-3.48,2.689c0,1.95,0.98,2.687,3.48,2.687s3.498-0.745,3.498-2.687C38.384,72.999,37.394,72.271,34.886,72.271    M31.515,86.602l4.379-2.391h2.365v-0.604h-2.365l-4.379-2.363v0.665l3.156,1.663l0.645,0.313v0.029l-0.645,0.322l-3.156,1.672   V86.602z M32.091,87.295l-0.576,0.01v4.8l0.576,0.019v-2.112h6.168v-0.594h-6.168V87.295z M38.259,93.221h-6.744v0.594h6.744   V93.221z M36.396,95.048c-2.328,0-1.52,3.471-3.234,3.471c-0.639,0-1.205-0.44-1.205-1.557c0-0.585,0.125-1.079,0.34-1.592   l-0.529-0.107c-0.225,0.477-0.361,1.069-0.361,1.727c0,1.449,0.775,2.095,1.791,2.095c2.221,0,1.428-3.461,3.236-3.461   c0.873,0,1.395,0.548,1.395,1.618c0,0.71-0.18,1.285-0.521,1.807l0.557,0.108c0.314-0.513,0.521-1.142,0.521-1.915   C38.384,95.802,37.628,95.048,36.396,95.048 M33.366,100.986c0.98,0,1.377,0.441,1.377,1.422v1.537h-2.697v-1.592   C32.046,101.411,32.421,100.986,33.366,100.986 M33.341,100.376c-1.232,0-1.826,0.619-1.826,1.978v2.185h6.744v-0.593h-3.031   v-1.564l3.031-1.727v-0.719l-3.139,1.878C35.011,100.88,34.435,100.376,33.341,100.376 M37.7,109.312h-2.723v-2.959h-0.506v2.959   h-2.398v-3.417l-0.559,0.027v3.974h6.744v-4.136l-0.559-0.026V109.312z M31.515,111.615l5.494,1.924l0.682,0.226v0.026   l-0.691,0.226l-5.484,1.924v0.656l6.744-2.456v-0.69l-6.744-2.455V111.615z M38.259,117.743h-6.744v0.592h6.744V117.743z    M38.259,120.014h-6.744v0.531l4.973-0.011l0.719-0.018l0.008,0.018l-0.611,0.396l-5.088,3.372v0.584h6.744v-0.54h-5.09   l-0.729,0.011l-0.01-0.019l0.611-0.396l5.217-3.488V120.014z M31.515,126.415v0.594h4.307c1.365,0,1.988,0.629,1.988,1.889   c0,1.268-0.604,1.897-1.988,1.897h-4.307v0.593h4.307c1.807,0,2.563-0.917,2.563-2.49c0-1.565-0.756-2.482-2.563-2.482H31.515z"/>
    <path fill="#1D1D1D"
          d="M28.181,82.043h-6.746v1.097h3.814l0.719-0.017l0.008,0.017l-0.602,0.404l-3.939,2.69v1.077h6.746v-1.106   h-3.984l-0.729,0.01l-0.01-0.019l0.613-0.402l4.109-2.877V82.043z M27.073,91.412h-1.869v-2.627h-1.018v2.627H22.56v-3.093   l-1.125,0.018v4.317h6.746v-4.452l-1.107-0.026V91.412z M28.181,93.89h-6.746v1.24h2.707v2.743h-2.707v1.24h6.746v-1.24h-2.896   V95.13h2.896V93.89z M21.616,99.977c-0.162,0.378-0.297,1.017-0.297,1.564c0,2.104,1.15,3.049,3.434,3.049   c2.428,0,3.551-0.954,3.551-2.978c0-0.584-0.16-1.222-0.375-1.663l-1.035,0.145c0.17,0.387,0.287,0.836,0.287,1.357   c0,1.323-0.566,1.836-2.42,1.836c-1.744,0-2.299-0.496-2.299-1.808c0-0.523,0.105-1.016,0.242-1.367L21.616,99.977z    M22.345,107.976v-0.027l0.701-0.189l2.635-0.81V109l-2.635-0.818L22.345,107.976z M28.181,106.186v-1.393l-6.746,2.418v1.483   l6.746,2.402v-1.323l-1.449-0.449v-2.697L28.181,106.186z M22.345,114.708v-0.028l0.701-0.188l2.635-0.809v2.05l-2.635-0.819   L22.345,114.708z M28.181,112.917v-1.393l-6.746,2.418v1.485l6.746,2.399v-1.323l-1.449-0.448v-2.697L28.181,112.917z    M28.181,121.028h-6.746v1.24h2.707v2.742h-2.707v1.241h6.746v-1.241h-2.896v-2.742h2.896V121.028z M22.587,127.063l-1.152,0.025   v4.309h6.746v-1.241h-2.779v-2.572l-1.086-0.009v2.581h-1.729V127.063z"/>
</g>
</svg>
